<?xml version="1.0" encoding="utf-8"?>
<!-- Generated by IcoMoon.io -->
<!DOCTYPE svg PUBLIC "-//W3C//DTD SVG 1.1//EN" "http://www.w3.org/Graphics/SVG/1.1/DTD/svg11.dtd">
<svg version="1.1" xmlns="http://www.w3.org/2000/svg" xmlns:xlink="http://www.w3.org/1999/xlink" width="32" height="32" viewBox="0 0 32 32">
<path fill="#444444" d="M24 14v2c0 4.080-3.054 7.446-7 7.938v2.062h3c0.552 0 1 0.448 1 1s-0.448 1-1 1h-8c-0.552 0-1-0.448-1-1s0.448-1 1-1h3v-2.062c-3.946-0.492-7-3.859-7-7.938v-2c0-0.552 0.448-1 1-1s1 0.448 1 1v2c0 3.314 2.686 6 6 6s6-2.686 6-6v-2c0-0.552 0.448-1 1-1s1 0.448 1 1zM16 4c-2.209 0-4 1.791-4 4v8c0 2.209 1.791 4 4 4s4-1.791 4-4v-8c0-2.209-1.791-4-4-4zM16 18c-1.104 0-2-0.895-2-2v-8c0-1.104 0.896-2 2-2s2 0.896 2 2v8c0 1.104-0.895 2-2 2z"></path>
</svg>
