<?xml version="1.0" encoding="utf-8"?>
<!-- Generated by IcoMoon.io -->
<!DOCTYPE svg PUBLIC "-//W3C//DTD SVG 1.1//EN" "http://www.w3.org/Graphics/SVG/1.1/DTD/svg11.dtd">
<svg version="1.1" xmlns="http://www.w3.org/2000/svg" xmlns:xlink="http://www.w3.org/1999/xlink" width="32" height="32" viewBox="0 0 32 32">
<path fill="#444444" d="M8.6 29.834h14.8l-7.4-9.867-7.4 9.867zM13.533 27.367l2.467-3.289 2.467 3.289h-4.933zM25.867 5.167h-19.733c-2.044 0-3.7 1.656-3.7 3.7v12.333c0 2.044 1.656 3.7 3.7 3.7h3.083l1.85-2.467h-4.933c-0.681 0-1.233-0.552-1.233-1.233v-12.333c0-0.681 0.552-1.233 1.233-1.233h19.733c0.681 0 1.233 0.552 1.233 1.233v12.333c0 0.681-0.552 1.233-1.233 1.233h-4.933l1.85 2.467h3.083c2.044 0 3.7-1.656 3.7-3.7v-12.333c0-2.044-1.656-3.7-3.7-3.7z"></path>
</svg>
