<?xml version="1.0" encoding="utf-8"?>
<!-- Generated by IcoMoon.io -->
<!DOCTYPE svg PUBLIC "-//W3C//DTD SVG 1.1//EN" "http://www.w3.org/Graphics/SVG/1.1/DTD/svg11.dtd">
<svg version="1.1" xmlns="http://www.w3.org/2000/svg" xmlns:xlink="http://www.w3.org/1999/xlink" width="32" height="32" viewBox="0 0 32 32">
<path fill="#444444" d="M26.303 6.242c0.71 0 1.288 0.578 1.288 1.288v14.167c0 0.71-0.578 1.288-1.288 1.288h-11.128l-5.614 4.010v-4.010h-3.864c-0.711 0-1.288-0.578-1.288-1.288v-14.167c0-0.711 0.578-1.288 1.288-1.288h20.606zM26.303 3.666h-20.606c-2.134 0-3.864 1.73-3.864 3.864v14.167c0 2.134 1.73 3.864 3.864 3.864h1.288v6.439l9.015-6.439h10.303c2.134 0 3.864-1.73 3.864-3.864v-14.167c0-2.134-1.73-3.864-3.864-3.864v0z"></path>
</svg>
