<?xml version="1.0" encoding="utf-8"?>
<!-- Generated by IcoMoon.io -->
<!DOCTYPE svg PUBLIC "-//W3C//DTD SVG 1.1//EN" "http://www.w3.org/Graphics/SVG/1.1/DTD/svg11.dtd">
<svg version="1.1" xmlns="http://www.w3.org/2000/svg" xmlns:xlink="http://www.w3.org/1999/xlink" width="36" height="32" viewBox="0 0 36 32">
<path fill="#444444" d="M19.945 12.879c0 1.075-0.871 1.946-1.946 1.946s-1.946-0.871-1.946-1.946c0-1.075 0.871-1.946 1.946-1.946s1.946 0.871 1.946 1.946z"></path>
<path fill="#444444" d="M18.991 22.321c0 0.548-0.444 0.993-0.993 0.993s-0.993-0.444-0.993-0.993c0-0.548 0.444-0.993 0.993-0.993s0.993 0.444 0.993 0.993z"></path>
<path fill="#444444" d="M18.991 22.321h-1.985l-0.954-9.443h3.892z"></path>
<path fill="#444444" d="M19.55 25.712c0 0.857-0.694 1.551-1.551 1.551s-1.551-0.694-1.551-1.551c0-0.857 0.694-1.551 1.551-1.551s1.551 0.694 1.551 1.551z"></path>
<path fill="#444444" d="M1.355 31.999c-0.217 0-0.436-0.055-0.638-0.171-0.619-0.353-0.835-1.141-0.481-1.76l16.778-29.415c0.353-0.619 1.142-0.835 1.76-0.482 0.62 0.353 0.836 1.142 0.482 1.761l-16.778 29.415c-0.238 0.417-0.674 0.652-1.122 0.652z"></path>
<path fill="#444444" d="M34.643 31.998h-33.287c-0.713 0-1.291-0.578-1.291-1.291s0.578-1.29 1.291-1.29h33.287c0.713 0 1.291 0.577 1.291 1.29s-0.578 1.291-1.291 1.291z"></path>
<path fill="#444444" d="M34.645 31.999c-0.451 0-0.889-0.238-1.127-0.659l-16.509-29.416c-0.349-0.622-0.128-1.408 0.494-1.757s1.408-0.128 1.757 0.494l16.509 29.415c0.349 0.623 0.128 1.409-0.494 1.758-0.2 0.112-0.417 0.166-0.631 0.166z"></path>
</svg>
