<?xml version="1.0" encoding="utf-8"?>
<!-- Generated by IcoMoon.io -->
<!DOCTYPE svg PUBLIC "-//W3C//DTD SVG 1.1//EN" "http://www.w3.org/Graphics/SVG/1.1/DTD/svg11.dtd">
<svg version="1.1" xmlns="http://www.w3.org/2000/svg" xmlns:xlink="http://www.w3.org/1999/xlink" width="32" height="32" viewBox="0 0 32 32">
<path fill="rgb(68, 68, 68)" d="M27.25 19.75c2.070 0 3.75-1.68 3.75-3.75s-1.68-3.75-3.75-3.75h-0.641c-0.133-0.376-0.284-0.743-0.455-1.1l0.453-0.453c1.463-1.465 1.463-3.839 0-5.303-1.465-1.464-3.84-1.464-5.303 0l-0.453 0.453c-0.357-0.171-0.725-0.323-1.101-0.456v-0.64c0-2.071-1.679-3.75-3.75-3.75s-3.75 1.679-3.75 3.75v0.64c-0.376 0.133-0.743 0.285-1.1 0.456l-0.453-0.453c-1.465-1.464-3.839-1.464-5.303 0s-1.464 3.839 0 5.303l0.453 0.453c-0.171 0.357-0.323 0.724-0.456 1.1h-0.64c-2.071 0-3.75 1.679-3.75 3.75s1.679 3.75 3.75 3.75h0.64c0.133 0.376 0.285 0.743 0.456 1.1l-0.453 0.453c-1.464 1.465-1.464 3.84 0 5.303 1.464 1.465 3.839 1.465 5.303 0l0.453-0.453c0.357 0.172 0.724 0.324 1.1 0.457v0.64c0 2.071 1.679 3.75 3.75 3.75s3.75-1.679 3.75-3.75v-0.64c0.376-0.133 0.743-0.285 1.101-0.457l0.453 0.453c1.465 1.465 3.838 1.465 5.303 0 1.463-1.463 1.463-3.838 0-5.303l-0.453-0.453c0.171-0.356 0.322-0.724 0.455-1.1h0.641zM16 21c-2.762 0-5-2.238-5-5s2.238-5 5-5 5 2.238 5 5-2.238 5-5 5z"></path>
</svg>
