<?xml version="1.0" encoding="utf-8"?>
<!-- Generated by IcoMoon.io -->
<!DOCTYPE svg PUBLIC "-//W3C//DTD SVG 1.1//EN" "http://www.w3.org/Graphics/SVG/1.1/DTD/svg11.dtd">
<svg version="1.1" xmlns="http://www.w3.org/2000/svg" xmlns:xlink="http://www.w3.org/1999/xlink" width="32" height="32" viewBox="0 0 32 32">
<path fill="#444444" d="M27.25 19.75c2.071 0 3.75-1.679 3.75-3.75s-1.679-3.75-3.75-3.75h-0.64c-0.133-0.376-0.285-0.743-0.456-1.1l0.453-0.453c1.464-1.465 1.464-3.839 0-5.303s-3.839-1.464-5.303 0l-0.453 0.453c-0.357-0.171-0.724-0.323-1.1-0.456v-0.64c0-2.071-1.679-3.75-3.75-3.75s-3.75 1.679-3.75 3.75v0.64c-0.376 0.133-0.743 0.285-1.1 0.456l-0.453-0.453c-1.465-1.464-3.839-1.464-5.303 0s-1.464 3.839 0 5.303l0.453 0.453c-0.171 0.357-0.323 0.724-0.456 1.1h-0.64c-2.071 0-3.75 1.679-3.75 3.75s1.679 3.75 3.75 3.75h0.64c0.133 0.376 0.285 0.743 0.456 1.1l-0.453 0.453c-1.464 1.465-1.464 3.839 0 5.303s3.839 1.464 5.303 0l0.453-0.453c0.357 0.171 0.724 0.323 1.1 0.456v0.64c0 2.071 1.679 3.75 3.75 3.75s3.75-1.679 3.75-3.75v-0.64c0.376-0.133 0.743-0.285 1.1-0.456l0.453 0.453c1.465 1.464 3.839 1.464 5.303 0s1.464-3.839 0-5.303l-0.453-0.453c0.171-0.357 0.323-0.724 0.456-1.1h0.64zM24.662 17.25c-0.212 1.483-0.796 2.845-1.653 3.99l1.83 1.83c0.488 0.488 0.488 1.28 0 1.768s-1.28 0.488-1.768 0l-0.049-0.049-1.782-1.782c-1.145 0.857-2.508 1.441-3.99 1.653v2.588c0 0.69-0.56 1.25-1.25 1.25s-1.25-0.56-1.25-1.25v-2.588c-1.483-0.212-2.845-0.796-3.99-1.653l-1.83 1.83c-0.488 0.488-1.28 0.488-1.768 0s-0.488-1.28 0-1.768l0.049-0.049 1.782-1.782c-0.857-1.145-1.441-2.508-1.653-3.99h-2.588c-0.69 0-1.25-0.56-1.25-1.25s0.56-1.25 1.25-1.25h2.588c0.212-1.483 0.796-2.845 1.653-3.99l-1.83-1.83c-0.488-0.488-0.488-1.28 0-1.768s1.28-0.488 1.768 0l0.049 0.049 1.782 1.782c1.145-0.857 2.507-1.441 3.99-1.653v-2.588c0-0.69 0.56-1.25 1.25-1.25s1.25 0.56 1.25 1.25v2.588c1.483 0.212 2.845 0.796 3.99 1.653l1.83-1.83c0.488-0.488 1.28-0.488 1.768 0s0.488 1.28 0 1.768l-0.049 0.049-1.782 1.782c0.857 1.145 1.441 2.507 1.653 3.99h2.588c0.69 0 1.25 0.56 1.25 1.25s-0.56 1.25-1.25 1.25h-2.588zM16 11c-2.761 0-5 2.238-5 5s2.238 5 5 5 5-2.238 5-5-2.238-5-5-5zM16 18.5c-1.381 0-2.5-1.119-2.5-2.5s1.119-2.5 2.5-2.5 2.5 1.119 2.5 2.5-1.119 2.5-2.5 2.5z"></path>
</svg>
