<?xml version="1.0" encoding="utf-8"?>
<!-- Generated by IcoMoon.io -->
<!DOCTYPE svg PUBLIC "-//W3C//DTD SVG 1.1//EN" "http://www.w3.org/Graphics/SVG/1.1/DTD/svg11.dtd">
<svg version="1.1" xmlns="http://www.w3.org/2000/svg" xmlns:xlink="http://www.w3.org/1999/xlink" width="32" height="32" viewBox="0 0 32 32">
<path fill="#444444" d="M6.948 27.239c-0.569-0.569-0.569-1.493 0-2.062l9.177-9.177-9.177-9.177c-0.569-0.569-0.569-1.493 0-2.062s1.493-0.569 2.062 0l10.208 10.208c0.569 0.569 0.569 1.493 0 2.062l-10.208 10.208c-0.285 0.285-0.658 0.427-1.031 0.427s-0.746-0.143-1.031-0.427zM24.021 27.667c0.805 0 1.458-0.653 1.458-1.458v-20.417c0-0.805-0.653-1.458-1.458-1.458s-1.458 0.653-1.458 1.458v20.417c0 0.805 0.653 1.458 1.458 1.458z"></path>
</svg>
