<?xml version="1.0" encoding="utf-8"?>
<!-- Generated by IcoMoon.io -->
<!DOCTYPE svg PUBLIC "-//W3C//DTD SVG 1.1//EN" "http://www.w3.org/Graphics/SVG/1.1/DTD/svg11.dtd">
<svg version="1.1" xmlns="http://www.w3.org/2000/svg" xmlns:xlink="http://www.w3.org/1999/xlink" width="32" height="32" viewBox="0 0 32 32">
<path fill="#444444" d="M8.889 0.001c-2.945 0-5.333 2.388-5.333 5.333v21.332c0 2.945 2.388 5.333 5.333 5.333s5.333-2.388 5.333-5.333v-21.332c0-2.945-2.388-5.333-5.333-5.333zM10.667 26.666c0 0.982-0.796 1.778-1.778 1.778s-1.778-0.796-1.778-1.778v-21.332c0-0.982 0.796-1.778 1.778-1.778s1.778 0.796 1.778 1.778v21.332zM23.111 0.001c-2.945 0-5.333 2.388-5.333 5.333v21.332c0 2.945 2.388 5.333 5.333 5.333s5.333-2.388 5.333-5.333v-21.332c0-2.945-2.388-5.333-5.333-5.333zM24.889 26.666c0 0.982-0.796 1.778-1.778 1.778s-1.778-0.796-1.778-1.778v-21.332c0-0.982 0.796-1.778 1.778-1.778s1.778 0.796 1.778 1.778v21.332z"></path>
</svg>
