<?xml version="1.0" encoding="utf-8"?>
<!-- Generated by IcoMoon.io -->
<!DOCTYPE svg PUBLIC "-//W3C//DTD SVG 1.1//EN" "http://www.w3.org/Graphics/SVG/1.1/DTD/svg11.dtd">
<svg version="1.1" xmlns="http://www.w3.org/2000/svg" xmlns:xlink="http://www.w3.org/1999/xlink" width="32" height="32" viewBox="0 0 32 32">
<path fill="#444444" d="M29.040 15.981c0 0.655-0.539 1.233-1.233 1.233h-15.255c-0.655 0-1.233-0.539-1.233-1.233s0.539-1.233 1.233-1.233h15.294c0.655 0 1.194 0.578 1.194 1.233zM5.888 13.015c-1.618 0-2.966 1.31-2.966 2.966s1.31 2.966 2.966 2.966 2.966-1.31 2.966-2.966-1.348-2.966-2.966-2.966zM27.846 5.811h-15.294c-0.655 0-1.233 0.539-1.233 1.233 0 0.655 0.539 1.233 1.233 1.233h15.294c0.655 0 1.233-0.539 1.233-1.233-0.039-0.693-0.578-1.233-1.233-1.233zM5.888 4.077c-1.618 0-2.966 1.31-2.966 2.966 0 1.618 1.31 2.966 2.966 2.966s2.966-1.31 2.966-2.966c-0.039-1.657-1.348-2.966-2.966-2.966zM27.846 23.724h-15.294c-0.655 0-1.233 0.539-1.233 1.233 0 0.655 0.539 1.233 1.233 1.233h15.294c0.655 0 1.233-0.539 1.233-1.233-0.039-0.693-0.578-1.233-1.233-1.233zM5.888 21.991c-1.618 0-2.966 1.31-2.966 2.966 0 1.618 1.31 2.966 2.966 2.966s2.966-1.31 2.966-2.966c-0.039-1.657-1.348-2.966-2.966-2.966z"></path>
</svg>
