<?xml version="1.0" encoding="utf-8"?>
<!-- Generated by IcoMoon.io -->
<!DOCTYPE svg PUBLIC "-//W3C//DTD SVG 1.1//EN" "http://www.w3.org/Graphics/SVG/1.1/DTD/svg11.dtd">
<svg version="1.1" xmlns="http://www.w3.org/2000/svg" xmlns:xlink="http://www.w3.org/1999/xlink" width="32" height="32" viewBox="0 0 32 32">
<path fill="#444444" d="M29 7.333v6.5c0 0.598-0.485 1.083-1.083 1.083h-6.5c-0.598 0-1.083-0.485-1.083-1.083s0.485-1.083 1.083-1.083h3.653c-1.458-1.421-2.609-2.546-2.934-2.871-0.003-0.003-0.005-0.005-0.007-0.007-0.828-0.828-1.792-1.468-2.867-1.904-1.038-0.421-2.136-0.635-3.262-0.635s-2.224 0.213-3.262 0.635c-1.074 0.436-2.038 1.076-2.867 1.904-0.073 0.073-0.144 0.146-0.214 0.221-0.693 0.743-1.243 1.588-1.637 2.518-0.060 0.17-0.136 0.334-0.196 0.505-0.201 0.561-0.818 0.854-1.38 0.656-0.561-0.198-0.857-0.811-0.664-1.373 0.082-0.237 0.174-0.471 0.274-0.701 0.216-0.5 0.47-0.984 0.76-1.445 0.365-0.582 0.787-1.131 1.258-1.637 0.087-0.094 0.176-0.186 0.267-0.277 1.034-1.034 2.24-1.834 3.584-2.38 0.646-0.262 1.322-0.462 2.008-0.595 0.68-0.132 1.376-0.198 2.069-0.198s1.389 0.067 2.068 0.198c0.686 0.133 1.361 0.333 2.008 0.595 1.345 0.545 2.55 1.346 3.584 2.38l0.016 0.016c0.347 0.346 1.599 1.569 3.157 3.088v-4.11c0-0.598 0.485-1.083 1.083-1.083s1.083 0.485 1.083 1.083zM4.083 25.75c0.598 0 1.083-0.485 1.083-1.083v-4.11c1.558 1.518 2.81 2.741 3.157 3.087l0.016 0.016c1.034 1.034 2.24 1.834 3.584 2.38 0.646 0.262 1.322 0.462 2.008 0.595 0.68 0.132 1.375 0.199 2.068 0.199 1.393 0 2.785-0.27 4.076-0.794 1.345-0.545 2.55-1.346 3.584-2.38 0.091-0.090 0.18-0.183 0.267-0.277 0.472-0.506 0.894-1.055 1.258-1.637 0.289-0.461 0.544-0.945 0.76-1.445 0.1-0.23 0.192-0.464 0.274-0.701 0.193-0.561-0.103-1.175-0.664-1.373-0.562-0.198-1.179 0.095-1.38 0.656-0.060 0.17-0.135 0.335-0.196 0.505-0.887 2.093-2.611 3.789-4.717 4.643-1.038 0.421-2.136 0.635-3.262 0.635s-2.224-0.213-3.262-0.635c-1.074-0.436-2.038-1.076-2.867-1.904-0.002-0.002-0.005-0.005-0.007-0.007-0.325-0.325-1.476-1.45-2.934-2.871h3.653c0.598 0 1.083-0.485 1.083-1.083s-0.485-1.083-1.083-1.083h-6.5c-0.598 0-1.083 0.485-1.083 1.083v6.5c0 0.598 0.485 1.083 1.083 1.083z"></path>
</svg>
