<?xml version="1.0" encoding="utf-8"?>
<!-- Generated by IcoMoon.io -->
<!DOCTYPE svg PUBLIC "-//W3C//DTD SVG 1.1//EN" "http://www.w3.org/Graphics/SVG/1.1/DTD/svg11.dtd">
<svg version="1.1" xmlns="http://www.w3.org/2000/svg" xmlns:xlink="http://www.w3.org/1999/xlink" width="40" height="32" viewBox="0 0 40 32">
<path fill="#444444" d="M23.101 0.899l-6.812 7.551h-8.287v15.1h8.287l6.812 7.551h2.517v-30.201h-2.517zM23.101 26.803l-5.401-5.401-0.889-0.369h-6.292v-10.068h6.292l0.889-0.369 5.401-5.401v21.608z"></path>
<path fill="#444444" d="M35.801 15.999l2.886-2.886c0.492-0.492 0.492-1.287 0-1.778s-1.289-0.492-1.78 0l-2.886 2.884-2.886-2.884c-0.492-0.492-1.289-0.492-1.78 0s-0.492 1.287 0 1.778l2.886 2.886-2.886 2.886c-0.492 0.492-0.492 1.289 0 1.78 0.245 0.245 0.569 0.369 0.889 0.369 0.322 0 0.644-0.123 0.889-0.369l2.886-2.886 2.886 2.886c0.245 0.245 0.567 0.369 0.889 0.369 0.321 0 0.644-0.123 0.889-0.369 0.492-0.492 0.492-1.289 0-1.78l-2.883-2.886z"></path>
</svg>
